<?xml version="1.0" encoding="iso-8859-1"?>
<!-- Generator: Adobe Illustrator 21.0.0, SVG Export Plug-In . SVG Version: 6.00 Build 0)  -->
<svg version="1.1" id="Capa_1" xmlns="http://www.w3.org/2000/svg" xmlns:xlink="http://www.w3.org/1999/xlink" x="0px" y="0px"
	 viewBox="0 0 597.829 597.829" style="enable-background:new 0 0 597.829 597.829;" xml:space="preserve">
<g>
	<g>
		<g id="flat_19_">
			<polygon style="fill:#87CED9;" points="410.374,91.194 86.128,91.194 86.128,597.829 511.701,597.829 511.701,192.521 			"/>
			<polygon style="fill:#71C4D1;" points="86.128,516.768 86.128,597.829 511.701,597.829 511.701,192.521 461.038,141.858 			"/>
			<polygon style="fill:#4398D1;" points="511.701,192.521 410.374,192.521 410.374,91.194 			"/>
			<path style="fill:#71C4D1;" d="M217.853,91.194v91.194c0,16.79-13.608,30.398-30.398,30.398s-30.398-13.608-30.398-30.398
				v-50.663h-20.265v50.663c0,27.976,22.687,50.663,50.663,50.663s50.663-22.687,50.663-50.663V91.194H217.853z"/>
			<rect x="136.791" y="253.317" style="fill:#4398D1;" width="324.246" height="293.848"/>
			<polygon style="fill:#3269A1;" points="461.038,476.237 385.043,400.242 329.313,455.971 248.251,364.777 136.791,476.237 
				136.791,547.166 461.038,547.166 			"/>
			<circle style="fill:#E34B87;" cx="329.313" cy="334.379" r="30.398"/>
			<path style="fill:#E34B87;" d="M177.322,222.919c-27.966-0.03-50.633-22.697-50.663-50.663v-40.531h20.265v40.531
				c0,16.79,13.608,30.398,30.398,30.398s30.398-13.608,30.398-30.398V50.663c0-16.79-13.608-30.398-30.398-30.398
				s-30.398,13.608-30.398,30.398v40.531h-20.265V50.663C126.659,22.687,149.346,0,177.322,0s50.663,22.687,50.663,50.663v121.592
				C227.955,200.222,205.288,222.889,177.322,222.919z"/>
		</g>
	</g>
</g>
<g>
</g>
<g>
</g>
<g>
</g>
<g>
</g>
<g>
</g>
<g>
</g>
<g>
</g>
<g>
</g>
<g>
</g>
<g>
</g>
<g>
</g>
<g>
</g>
<g>
</g>
<g>
</g>
<g>
</g>
</svg>
